<svg xmlns="http://www.w3.org/2000/svg" width="1200" height="560" viewBox="0 0 1200 560">
  <rect width="100%" height="100%" fill="#ffffff"/>
  <text x="600" y="36" text-anchor="middle" font-family="Arial" font-size="22" fill="#222">Vulnerability Detection Effectiveness</text>
  <text x="600" y="58" text-anchor="middle" font-family="Arial" font-size="13" fill="#555">Weighted Precision, Weighted Recall, Weighted F1 (%)</text>

  <line x1="90" y1="470" x2="1130" y2="470" stroke="#222" stroke-width="1.6"/>
  <line x1="90" y1="70" x2="90" y2="470" stroke="#222" stroke-width="1.6"/>

  <line x1="90" y1="470" x2="1130" y2="470" stroke="#ececec"/><text x="78" y="474" text-anchor="end" font-family="Arial" font-size="12" fill="#444">0</text>
  <line x1="90" y1="370" x2="1130" y2="370" stroke="#ececec"/><text x="78" y="374" text-anchor="end" font-family="Arial" font-size="12" fill="#444">20</text>
  <line x1="90" y1="270" x2="1130" y2="270" stroke="#ececec"/><text x="78" y="274" text-anchor="end" font-family="Arial" font-size="12" fill="#444">40</text>
  <line x1="90" y1="170" x2="1130" y2="170" stroke="#ececec"/><text x="78" y="174" text-anchor="end" font-family="Arial" font-size="12" fill="#444">60</text>
  <line x1="90" y1="70" x2="1130" y2="70" stroke="#ececec"/><text x="78" y="74" text-anchor="end" font-family="Arial" font-size="12" fill="#444">80</text>

  <rect x="150" y="177.3" width="18" height="292.7" fill="#1f77b4"/>
  <rect x="174" y="213.8" width="18" height="256.2" fill="#ff7f0e"/>
  <rect x="198" y="203.0" width="18" height="267.0" fill="#2ca02c"/>

  <rect x="330" y="199.1" width="18" height="270.9" fill="#1f77b4"/>
  <rect x="354" y="201.5" width="18" height="268.5" fill="#ff7f0e"/>
  <rect x="378" y="200.3" width="18" height="269.7" fill="#2ca02c"/>

  <rect x="510" y="221.7" width="18" height="248.3" fill="#1f77b4"/>
  <rect x="534" y="153.8" width="18" height="316.2" fill="#ff7f0e"/>
  <rect x="558" y="193.8" width="18" height="276.2" fill="#2ca02c"/>

  <rect x="690" y="187.5" width="18" height="282.5" fill="#1f77b4"/>
  <rect x="714" y="249.2" width="18" height="220.8" fill="#ff7f0e"/>
  <rect x="738" y="239.8" width="18" height="230.2" fill="#2ca02c"/>

  <rect x="870" y="120.4" width="18" height="349.6" fill="#1f77b4"/>
  <rect x="894" y="269.7" width="18" height="200.3" fill="#ff7f0e"/>
  <rect x="918" y="294.4" width="18" height="175.6" fill="#2ca02c"/>

  <text x="184" y="494" text-anchor="middle" font-family="Arial" font-size="12" fill="#333">GPT-4o</text>
  <text x="364" y="494" text-anchor="middle" font-family="Arial" font-size="12" fill="#333">Claude 4</text>
  <text x="544" y="494" text-anchor="middle" font-family="Arial" font-size="12" fill="#333">Gemini 2.5</text>
  <text x="724" y="494" text-anchor="middle" font-family="Arial" font-size="12" fill="#333">Qwen 3</text>
  <text x="904" y="494" text-anchor="middle" font-family="Arial" font-size="12" fill="#333">Llama 3.3</text>

  <rect x="955" y="95" width="13" height="13" fill="#1f77b4"/><text x="974" y="106" font-family="Arial" font-size="12" fill="#222">w-Precision</text>
  <rect x="955" y="117" width="13" height="13" fill="#ff7f0e"/><text x="974" y="128" font-family="Arial" font-size="12" fill="#222">w-Recall</text>
  <rect x="955" y="139" width="13" height="13" fill="#2ca02c"/><text x="974" y="150" font-family="Arial" font-size="12" fill="#222">w-F1</text>
</svg>
